# xmcd
#
# Track frame offsets:
#	150
#	12830
#	25962
#	39825
#	53202
#	66732
#	80725
#	92927
#	105752
#	117617
#	130665
#	143482
#	156517
#	168957
#	181992
#	195285
#	208412
#	220237
#	233470
#	245950
#	259837
#
# Disc length: 3643 seconds
#
# Revision: 0
# Processed by: cddbd v1.5.2PL0 Copyright (c) Steve Scherf et al.
# Submitted via: EasyCDDAExtractor 10.0.5.1
#
DISCID=2b0e3915
DTITLE=Various Artist - Musiikkimuistoja sotavuosilta 3
DYEAR=1990
DGENRE=Retro
TTITLE0=Georg Malmstén - Orvokki
TTITLE1=A. Aimo - Iso-Iita
TTITLE2=Kauko Käyhkö and Dallapé - Pikku Irmeli
TTITLE3=Eugen Malmstén - Pirjo
TTITLE4=Georg Malmstén - Armas Anneli
TTITLE5=Georg Malmstén - Saariston Sirkka
TTITLE6=Eugen Malmstén - Vanha merimies muistelee
TTITLE7=Viljo Vesterinen - Laivaston tanssiaiset
TTITLE8=Harmony Sisters - Sataman valot
TTITLE9=Georg Malmstén - Paavo puosu
TTITLE10=Georg Malmstén - Meripojan preivi
TTITLE11=Viljo Immonen - Kotimaani tähdet
TTITLE12=Kauko Käyhkö - Heijallerii
TTITLE13=Matti Reima - Merten taa
TTITLE14=A. Aimo - Sinut unhoitin pellavatukka
TTITLE15=Veli Lehto - Lennä lokki Heigolandiin
TTITLE16=A. Aimo - Jonni Meripoika
TTITLE17=Viljo Vesterinen and Onni Laihanen - Kaukomaita kohti
TTITLE18=Viljo Vesterinen - Hilpeä laituri
TTITLE19=Onni Laihanen and Paavo Raivonen - Laatokan lainehilla
TTITLE20=Viljo Vesterinen - Pikku paholainen
EXTD=
EXTT0=
EXTT1=
EXTT2=
EXTT3=
EXTT4=
EXTT5=
EXTT6=
EXTT7=
EXTT8=
EXTT9=
EXTT10=
EXTT11=
EXTT12=
EXTT13=
EXTT14=
EXTT15=
EXTT16=
EXTT17=
EXTT18=
EXTT19=
EXTT20=
PLAYORDER=
